<svg width="64" height="64" viewBox="0 0 64 64" xmlns="http://www.w3.org/2000/svg">
  <!-- Background -->
  <defs>
    <linearGradient id="bgGradient" x1="0%" y1="0%" x2="100%" y2="100%">
      <stop offset="0%" style="stop-color:#2a2a2a;stop-opacity:1" />
      <stop offset="100%" style="stop-color:#1a1a1a;stop-opacity:1" />
    </linearGradient>
    <linearGradient id="goldGradient" x1="0%" y1="0%" x2="100%" y2="100%">
      <stop offset="0%" style="stop-color:#d4af37;stop-opacity:1" />
      <stop offset="50%" style="stop-color:#f4d03f;stop-opacity:1" />
      <stop offset="100%" style="stop-color:#b8860b;stop-opacity:1" />
    </linearGradient>
    <filter id="glow">
      <feGaussianBlur stdDeviation="1" result="coloredBlur"/>
      <feMerge> 
        <feMergeNode in="coloredBlur"/>
        <feMergeNode in="SourceGraphic"/>
      </feMerge>
    </filter>
  </defs>
  
  <!-- Dark rounded square background -->
  <rect width="64" height="64" rx="12" ry="12" fill="url(#bgGradient)"/>
  
  <!-- CSES-inspired geometric pattern -->
  <!-- First C - CSES -->
  <path d="M16 24 C16 20, 20 16, 26 16 L30 16 C30 16, 30 20, 30 20 L26 20 C22 20, 20 22, 20 24 L20 36 C20 38, 22 40, 26 40 L30 40 C30 40, 30 44, 30 44 L26 44 C20 44, 16 40, 16 36 Z" fill="url(#goldGradient)" filter="url(#glow)"/>
  
  <!-- Second C - Companion -->
  <path d="M34 24 C34 20, 38 16, 44 16 L48 16 C48 16, 48 20, 48 20 L44 20 C40 20, 38 22, 38 24 L38 36 C38 38, 40 40, 44 40 L48 40 C48 40, 48 44, 48 44 L44 44 C38 44, 34 40, 34 36 Z" fill="url(#goldGradient)" filter="url(#glow)"/>
  
  <!-- Lightsaber glow effect between the Cs -->
  <line x1="32" y1="30" x2="32" y2="30" stroke="url(#goldGradient)" stroke-width="1" opacity="0.8" stroke-linecap="round">
    <animate attributeName="y2" values="30;26;30" dur="2s" repeatCount="indefinite"/>
    <animate attributeName="opacity" values="0.8;1;0.8" dur="2s" repeatCount="indefinite"/>
  </line>
  

</svg>